{"title":"Gang.Related.S01E06.MP4.HDTV.720p.NLsub.{Th3Sp3cialist}","uid":10913891,"size":795145728,"categoryP":"video","categoryS":"hd___tv_shows","magnet":"?xt=urn:btih:dbc3fca1a7e1e99228c19465a856d71cf842cb03&amp;dn=Gang.Related.S01E06.MP4.HDTV.720p.NLsub.%7BTh3Sp3cialist%7D&amp;tr=udp%3A%2F%2Ftracker.openbittorrent.com%3A80&amp;tr=udp%3A%2F%2Fopen.demonii.com%3A1337&amp;tr=udp%3A%2F%2Ftracker.coppersurfer.tk%3A6969&amp;tr=udp%3A%2F%2Fexodus.desync.com%3A6969","seeders":3,"leechers":0,"uploader":"HOLLANDmovies","files":-1,"time":1409285486,"description":"Gang Related: Season 1, Episode 6\nEntre dos tierras (26 Jun. 2014)\nTV Episode  -  46 min  -  Action | Crime | Drama\n \nDaniel takes a big risk to make up for his unintentional financial setbacks, while Carlos has serious doubts about his father's plan to reform the family business.\n\nDirector: Milan Cheylov\nWriters: Chris Morgan (created by), Carolina Paiz\nStars: Ramon Rodriguez, Jay Hernandez, RZA \n\nGeneral\nComplete name                  : Gang.Related.S01E06.MP4.HDTV.720p.NLsub.{Th3Sp3cialist}.Episode.mp4\nFormat                         : MPEG-4\nFormat profile                 : Base Media\nCodec ID                       : isom\nFile size                      : 751 MiB\nDuration                       : 45mn 22s\nOverall bit rate mode          : Variable\nOverall bit rate               : 2 313 Kbps\n\n\nVideo\nID                             : 1\nOriginal Source                : Gang Related S01E06 1080p HDTV NL Subs - BBT.mkv\nFormat                         : AVC\nFormat/Info                    : Advanced Video Codec\nFormat profile                 : &lt;a class=&quot;__cf_email__&quot; href=&quot;/cdn-cgi/l/email-protection&quot; data-cfemail=&quot;5d15343a351d116e736c&quot;&gt;[email&amp;#160;protected]&lt;/a&gt;&lt;script cf-hash='f9e31' type=&quot;text/javascript&quot;&gt;\n/* &lt;![CDATA[ */!function(){try{var t=&quot;currentScript&quot;in document?document.currentScript:function(){for(var t=document.getElementsByTagName(&quot;script&quot;),e=t.length;e--;)if(t[e].getAttribute(&quot;cf-hash&quot;))return t[e]}();if(t&amp;&amp;t.previousSibling){var e,r,n,i,c=t.previousSibling,a=c.getAttribute(&quot;data-cfemail&quot;);if(a){for(e=&quot;&quot;,r=parseInt(a.substr(0,2),16),n=2;a.length-n;n+=2)i=parseInt(a.substr(n,2),16)^r,e+=String.fromCharCode(i);e=document.createTextNode(e),c.parentNode.replaceChild(e,c)}}}catch(u){}}();/* ]]&gt; */&lt;/script&gt;\nFormat settings, CABAC         : Yes\nFormat settings, ReFrames      : 5 frames\nCodec ID                       : avc1\nCodec ID/Info                  : Advanced Video Coding\nDuration                       : 45mn 21s\nBit rate                       : 2 155 Kbps\nWidth                          : 1 280 pixels\nHeight                         : 720 pixels\nDisplay aspect ratio           : 16:9\nFrame rate mode                : Constant\nFrame rate                     : 23.976 fps\nColor space                    : YUV\nChroma subsampling             : 4:2:0\nBit depth                      : 8 bits\nScan type                      : Progressive\nBits/(Pixel*Frame)             : 0.098\nStream size                    : 699 MiB (93%)\n\n\nAudio\nID                             : 2\nFormat                         : AAC\nFormat/Info                    : Advanced Audio Codec\nFormat profile                 : LC\nCodec ID                       : 40\nDuration                       : 45mn 22s\nBit rate mode                  : Variable\nBit rate                       : 152 Kbps\nChannel(s)                     : 2 channels\nChannel positions              : Front: L R\nSampling rate                  : 44.1 KHz\nCompression mode               : Lossy\nStream size                    : 49.3 MiB (7%)\n &lt;a href=&quot;\nhttp://bayimg.com/oaAEGAAGb&quot; rel=&quot;nofollow&quot; target=&quot;_NEW&quot;&gt;\nhttp://bayimg.com/oaAEGAAGb&lt;/a&gt; &lt;a href=&quot;\nhttp://bayimg.com/oAAEHAaGB&quot; rel=&quot;nofollow&quot; target=&quot;_NEW&quot;&gt;\nhttp://bayimg.com/oAAEHAaGB&lt;/a&gt; &lt;a href=&quot;\nhttp://bayimg.com/OAaeiAAGb&quot; rel=&quot;nofollow&quot; target=&quot;_NEW&quot;&gt;\nhttp://bayimg.com/OAaeiAAGb&lt;/a&gt;","torrent":{"xt":"urn:btih:dbc3fca1a7e1e99228c19465a856d71cf842cb03","amp;dn":"Gang.Related.S01E06.MP4.HDTV.720p.NLsub.%7BTh3Sp3cialist%7D","amp;tr":["udp%3A%2F%2Ftracker.openbittorrent.com%3A80","udp%3A%2F%2Fopen.demonii.com%3A1337","udp%3A%2F%2Ftracker.coppersurfer.tk%3A6969","udp%3A%2F%2Fexodus.desync.com%3A6969"],"infoHash":"dbc3fca1a7e1e99228c19465a856d71cf842cb03","infoHashBuffer":{"type":"Buffer","data":[219,195,252,161,167,225,233,146,40,193,148,101,168,86,215,28,248,66,203,3]},"announce":[],"urlList":[]}}